<mxfile host="65bd71144e">
    <diagram id="7tmBYfSmf5uaHpifSHsH" name="Page-1">
        <mxGraphModel dx="1336" dy="733" grid="1" gridSize="10" guides="1" tooltips="1" connect="1" arrows="1" fold="1" page="1" pageScale="1" pageWidth="827" pageHeight="1169" math="0" shadow="0">
            <root>
                <mxCell id="0"/>
                <mxCell id="1" parent="0"/>
                <mxCell id="2" value="br.com.offer.metric" style="shape=folder;fontStyle=1;tabWidth=80;tabHeight=30;tabPosition=left;html=1;boundedLbl=1;verticalAlign=top;" vertex="1" parent="1">
                    <mxGeometry x="44" y="20" width="740" height="420" as="geometry"/>
                </mxCell>
                <mxCell id="22" value="" style="edgeStyle=none;html=1;fontColor=#000000;endArrow=open;endFill=0;dashed=1;" edge="1" parent="1" source="11" target="20">
                    <mxGeometry relative="1" as="geometry"/>
                </mxCell>
                <mxCell id="23" value="+throws" style="edgeLabel;html=1;align=center;verticalAlign=middle;resizable=0;points=[];fontColor=#000000;" vertex="1" connectable="0" parent="22">
                    <mxGeometry x="0.5121" y="-1" relative="1" as="geometry">
                        <mxPoint x="-44" y="-8" as="offset"/>
                    </mxGeometry>
                </mxCell>
                <mxCell id="24" style="edgeStyle=none;html=1;dashed=1;fontColor=#000000;endArrow=open;endFill=0;" edge="1" parent="1" source="11" target="15">
                    <mxGeometry relative="1" as="geometry"/>
                </mxCell>
                <mxCell id="25" value="+uses" style="edgeLabel;html=1;align=center;verticalAlign=middle;resizable=0;points=[];fontColor=#000000;" vertex="1" connectable="0" parent="24">
                    <mxGeometry x="0.1617" relative="1" as="geometry">
                        <mxPoint x="20" y="-12" as="offset"/>
                    </mxGeometry>
                </mxCell>
                <mxCell id="28" value="" style="edgeStyle=none;html=1;dashed=1;fontColor=#000000;endArrow=open;endFill=0;" edge="1" parent="1" source="11" target="26">
                    <mxGeometry relative="1" as="geometry">
                        <Array as="points">
                            <mxPoint x="147" y="122"/>
                        </Array>
                    </mxGeometry>
                </mxCell>
                <mxCell id="31" value="+creates" style="edgeLabel;html=1;align=center;verticalAlign=middle;resizable=0;points=[];fontColor=#000000;" vertex="1" connectable="0" parent="28">
                    <mxGeometry x="-0.1878" relative="1" as="geometry">
                        <mxPoint y="9" as="offset"/>
                    </mxGeometry>
                </mxCell>
                <mxCell id="34" value="" style="edgeStyle=none;html=1;dashed=1;fontColor=#000000;endArrow=open;endFill=0;" edge="1" parent="1" source="11" target="32">
                    <mxGeometry relative="1" as="geometry"/>
                </mxCell>
                <mxCell id="35" value="+parses" style="edgeLabel;html=1;align=center;verticalAlign=middle;resizable=0;points=[];fontColor=#000000;" vertex="1" connectable="0" parent="34">
                    <mxGeometry x="-0.0266" y="2" relative="1" as="geometry">
                        <mxPoint x="17" y="-6" as="offset"/>
                    </mxGeometry>
                </mxCell>
                <mxCell id="11" value="MetricController" style="swimlane;fontStyle=1;align=center;verticalAlign=top;childLayout=stackLayout;horizontal=1;startSize=26;horizontalStack=0;resizeParent=1;resizeParentMax=0;resizeLast=0;collapsible=1;marginBottom=0;fontColor=#000000;" vertex="1" parent="1">
                    <mxGeometry x="317" y="105" width="160" height="34" as="geometry"/>
                </mxCell>
                <mxCell id="13" value="" style="line;strokeWidth=1;fillColor=none;align=left;verticalAlign=middle;spacingTop=-1;spacingLeft=3;spacingRight=3;rotatable=0;labelPosition=right;points=[];portConstraint=eastwest;fontColor=#000000;" vertex="1" parent="11">
                    <mxGeometry y="26" width="160" height="8" as="geometry"/>
                </mxCell>
                <mxCell id="38" value="" style="edgeStyle=none;html=1;dashed=1;fontColor=#000000;endArrow=open;endFill=0;" edge="1" parent="1" source="15" target="36">
                    <mxGeometry relative="1" as="geometry"/>
                </mxCell>
                <mxCell id="39" value="+uses" style="edgeLabel;html=1;align=center;verticalAlign=middle;resizable=0;points=[];fontColor=#000000;" vertex="1" connectable="0" parent="38">
                    <mxGeometry y="3" relative="1" as="geometry">
                        <mxPoint x="15" as="offset"/>
                    </mxGeometry>
                </mxCell>
                <mxCell id="15" value="MetricService" style="swimlane;fontStyle=1;align=center;verticalAlign=top;childLayout=stackLayout;horizontal=1;startSize=26;horizontalStack=0;resizeParent=1;resizeParentMax=0;resizeLast=0;collapsible=1;marginBottom=0;fontColor=#000000;" vertex="1" parent="1">
                    <mxGeometry x="317" y="255" width="160" height="34" as="geometry"/>
                </mxCell>
                <mxCell id="16" value="" style="line;strokeWidth=1;fillColor=none;align=left;verticalAlign=middle;spacingTop=-1;spacingLeft=3;spacingRight=3;rotatable=0;labelPosition=right;points=[];portConstraint=eastwest;fontColor=#000000;" vertex="1" parent="15">
                    <mxGeometry y="26" width="160" height="8" as="geometry"/>
                </mxCell>
                <mxCell id="20" value="MetricExtecption" style="swimlane;fontStyle=1;align=center;verticalAlign=top;childLayout=stackLayout;horizontal=1;startSize=26;horizontalStack=0;resizeParent=1;resizeParentMax=0;resizeLast=0;collapsible=1;marginBottom=0;fontColor=#000000;" vertex="1" parent="1">
                    <mxGeometry x="597" y="105" width="160" height="34" as="geometry"/>
                </mxCell>
                <mxCell id="21" value="" style="line;strokeWidth=1;fillColor=none;align=left;verticalAlign=middle;spacingTop=-1;spacingLeft=3;spacingRight=3;rotatable=0;labelPosition=right;points=[];portConstraint=eastwest;fontColor=#000000;" vertex="1" parent="20">
                    <mxGeometry y="26" width="160" height="8" as="geometry"/>
                </mxCell>
                <mxCell id="26" value="GetMetricRequest" style="swimlane;fontStyle=1;align=center;verticalAlign=top;childLayout=stackLayout;horizontal=1;startSize=26;horizontalStack=0;resizeParent=1;resizeParentMax=0;resizeLast=0;collapsible=1;marginBottom=0;fontColor=#000000;" vertex="1" parent="1">
                    <mxGeometry x="67" y="205" width="160" height="34" as="geometry"/>
                </mxCell>
                <mxCell id="27" value="" style="line;strokeWidth=1;fillColor=none;align=left;verticalAlign=middle;spacingTop=-1;spacingLeft=3;spacingRight=3;rotatable=0;labelPosition=right;points=[];portConstraint=eastwest;fontColor=#000000;" vertex="1" parent="26">
                    <mxGeometry y="26" width="160" height="8" as="geometry"/>
                </mxCell>
                <mxCell id="32" value="GetMetricResponse" style="swimlane;fontStyle=1;align=center;verticalAlign=top;childLayout=stackLayout;horizontal=1;startSize=26;horizontalStack=0;resizeParent=1;resizeParentMax=0;resizeLast=0;collapsible=1;marginBottom=0;fontColor=#000000;" vertex="1" parent="1">
                    <mxGeometry x="527" y="205" width="160" height="34" as="geometry"/>
                </mxCell>
                <mxCell id="33" value="" style="line;strokeWidth=1;fillColor=none;align=left;verticalAlign=middle;spacingTop=-1;spacingLeft=3;spacingRight=3;rotatable=0;labelPosition=right;points=[];portConstraint=eastwest;fontColor=#000000;" vertex="1" parent="32">
                    <mxGeometry y="26" width="160" height="8" as="geometry"/>
                </mxCell>
                <mxCell id="36" value="MetricRepository" style="swimlane;fontStyle=1;align=center;verticalAlign=top;childLayout=stackLayout;horizontal=1;startSize=26;horizontalStack=0;resizeParent=1;resizeParentMax=0;resizeLast=0;collapsible=1;marginBottom=0;fontColor=#000000;" vertex="1" parent="1">
                    <mxGeometry x="317" y="375" width="160" height="34" as="geometry"/>
                </mxCell>
                <mxCell id="37" value="" style="line;strokeWidth=1;fillColor=none;align=left;verticalAlign=middle;spacingTop=-1;spacingLeft=3;spacingRight=3;rotatable=0;labelPosition=right;points=[];portConstraint=eastwest;fontColor=#000000;" vertex="1" parent="36">
                    <mxGeometry y="26" width="160" height="8" as="geometry"/>
                </mxCell>
            </root>
        </mxGraphModel>
    </diagram>
</mxfile>